<svg width="179" height="70" viewBox="0 0 179 70" fill="none" xmlns="http://www.w3.org/2000/svg">
<path d="M55.6521 7.10275V34.0952H47.6991V7.10275H41.5536V0H61.7976V7.10275H55.6521Z" fill="#FF6B00"/>
<path d="M74.9819 27.4911L74.5218 27.9395H71.4495L70.9884 27.4911V6.60511L71.4495 6.15673H74.5218L74.9819 6.60511V27.4911ZM79.3169 0H66.6534C64.6478 0.710778 62.8631 2.13033 62.8631 5.68221V28.413C62.8631 32.0122 64.5158 33.3382 66.6534 34.0952H79.3169C81.4544 33.3372 83.1071 32.0122 83.1071 28.413V5.68221C83.1071 2.08307 81.4544 0.757024 79.3169 0Z" fill="#FF6B00"/>
<path d="M14.6146 49.2086H14.1532L12.7246 69.256H3.68824L0 41.9599V36.2262H6.54655L7.97622 55.8144H8.43661L9.81982 36.2262H18.9016L20.3313 55.8144H20.7916L22.2213 36.2262H28.7679V41.9599L25.0796 69.256H16.0433L14.6146 49.2086Z" fill="#FF6B00"/>
<path d="M35.6263 55.9524H37.8905L36.985 45.5393H36.5318L35.6263 55.9524ZM38.4796 62.8332H35.0383L34.4948 69.256H27.7024V63.7053L31.823 36.2262H41.6948L45.8155 63.7053V69.256H39.0231L38.4796 62.8332Z" fill="#FF6B00"/>
<path d="M55.0318 42.1898V50.447H57.6891L58.1323 49.9878V42.6479L57.6891 42.1887H55.0318V42.1898ZM47.9464 69.256V36.2262H61.7633C63.7116 36.9606 65.2177 38.2445 65.2177 41.7306V48.7491C65.2177 51.9147 63.9783 53.2911 62.2511 54.0707L66.0595 64.6215V69.2549H59.8595L55.7854 56.4105H55.0328V69.2549H47.9474L47.9464 69.256Z" fill="#FF6B00"/>
<path d="M68.1905 36.2262H82.8391V43.1072H75.1311V49.071H82.4049V55.952H75.1311V62.3749H83.1072V69.256H68.1905V36.2262Z" fill="#FF6B00"/>
<path d="M8.39069 20.3612H10.7879L9.82942 9.61109H9.41687L8.39069 20.3612ZM11.4119 27.465H7.76769L7.19262 34.0952H0V28.3658L4.66728 0H14.5123L19.1786 28.3658V34.0952H11.987L11.4119 27.465Z" fill="#FF6B00"/>
<path d="M31.5276 0V27.4911L31.0795 27.9405H28.5872L28.14 27.4911V0H20.244V28.413C20.244 32.0122 21.8501 33.3382 23.9274 34.0952H35.7393C37.8166 33.3372 39.4226 32.0122 39.4226 28.413V0H31.5266H31.5276Z" fill="#FF6B00"/>
<path d="M122.53 0H138.276V7.10275H130.079V13.2565H137.803V20.3602H130.079V26.9925H138.512V34.0952H122.53V0Z" fill="#FF6B00"/>
<path d="M168.211 20.3612H170.608L169.65 9.61109H169.237L168.212 20.3612H168.211ZM171.232 27.465H167.588L167.013 34.0952H159.821V28.3658L164.489 0H174.334L179 28.3658V34.0952H171.808L171.233 27.465H171.232Z" fill="#FF6B00"/>
<path d="M95.2921 56.4112H92.2317V69.256H85.2381V36.2262H92.2317V49.5301H95.2921V36.2262H102.286V69.256H95.2921V56.4112Z" fill="#FF6B00"/>
<path d="M115.438 42.6479L114.996 42.1898H111.952L111.508 42.6479V62.8322L111.952 63.2913H114.996L115.438 62.8322V42.6479ZM122.53 63.7505C122.53 67.2366 121.022 68.5215 119.072 69.256H107.874C105.924 68.5215 104.417 67.2376 104.417 63.7505V41.7306C104.417 38.2897 106.045 36.9144 107.874 36.2262H119.072C121.022 36.9606 122.53 38.2445 122.53 41.7306V63.7505Z" fill="#FF6B00"/>
<path d="M132.022 62.8341L132.482 63.2932H134.951L135.412 62.8341V36.2262H142.774V63.7513C142.774 67.2375 141.21 68.5225 139.185 69.256H128.25C126.226 68.5215 124.661 67.2375 124.661 63.7513V36.2262H132.023V62.8341H132.022Z" fill="#FF6B00"/>
<path d="M161.951 56.2273V63.7513C161.951 67.2375 160.373 68.5225 158.329 69.256H147.462C145.419 68.5215 143.839 67.2375 143.839 63.7513V57.237H151.27V62.8341L151.734 63.2932H154.056L154.52 62.8341V57.7876L154.102 57.1456L146.44 53.7508C144.165 52.7411 143.839 51.1818 143.839 48.7043V41.7308C143.839 38.2446 145.418 36.9596 147.462 36.2262H158.329C160.372 36.9606 161.951 38.2446 161.951 41.7308V47.8784H154.521V42.6481L154.057 42.19H151.735L151.271 42.6481V47.4655L151.875 48.1999L159.352 51.1818C161.628 52.0991 161.952 53.7508 161.952 56.2283" fill="#FF6B00"/>
<path d="M163.018 36.2262H178.767V43.1072H170.485V49.071H178.3V55.952H170.485V62.3749H179V69.256H163.018V36.2262Z" fill="#FF6B00"/>
<path d="M158.756 9.6131V5.68221C158.756 2.08307 157.065 0.757024 154.878 0H143.455C141.403 0.710778 139.577 2.13033 139.577 5.68221V28.413C139.577 32.0122 141.268 33.3382 143.455 34.0952H154.878C157.065 33.3372 158.756 32.0122 158.756 28.413V13.2565H149.041V20.3602H151.455V27.4901L150.984 27.9395H147.908L147.437 27.4901V6.60511L147.908 6.15673H150.984L151.455 6.60511V9.6131H158.756Z" fill="#FF6B00"/>
<path d="M103.06 14.6799H102.907V34.0952H95.8929V0H103.984L107.915 11.8382H108.377L112.307 0H120.399V34.0952H113.386V14.6799H113.232L110.921 22.257H105.372L103.06 14.6799Z" fill="#FF6B00"/>
</svg>
