<svg width="20" height="24" viewBox="0 0 20 24" fill="none" xmlns="http://www.w3.org/2000/svg">
<path d="M9.60004 0C7.05396 0 4.61217 1.01142 2.81182 2.81177C1.01148 4.61212 5.20959e-05 7.05391 5.20959e-05 9.59998C-0.00784855 11.989 0.883144 14.2936 2.49605 16.056L9.14404 23.79C9.20036 23.8558 9.27029 23.9087 9.34901 23.945C9.42773 23.9812 9.51337 24 9.60004 24C9.6867 24 9.77234 23.9812 9.85106 23.945C9.92978 23.9087 9.99971 23.8558 10.056 23.79L16.704 16.056C18.3169 14.2936 19.2079 11.989 19.2 9.59998C19.2 7.05391 18.1886 4.61212 16.3883 2.81177C14.5879 1.01142 12.1461 0 9.60004 0ZM15.792 15.276L9.60004 22.482L3.40805 15.282C2.30639 14.0802 1.57826 12.5838 1.31245 10.9753C1.04664 9.36686 1.25465 7.71579 1.9111 6.22349C2.56755 4.73119 3.64407 3.46217 5.00937 2.5712C6.37467 1.68022 7.96974 1.20581 9.60004 1.20581C11.2303 1.20581 12.8254 1.68022 14.1907 2.5712C15.556 3.46217 16.6325 4.73119 17.289 6.22349C17.9454 7.71579 18.1534 9.36686 17.8876 10.9753C17.6218 12.5838 16.8937 14.0802 15.792 15.282V15.276Z" fill="#283040"/>
<path d="M9.60002 5.4C8.76934 5.4 7.95731 5.64633 7.26663 6.10783C6.57594 6.56933 6.03762 7.22528 5.71973 7.99273C5.40184 8.76017 5.31867 9.60465 5.48073 10.4194C5.64279 11.2341 6.0428 11.9825 6.63018 12.5698C7.21756 13.1572 7.96592 13.5572 8.78064 13.7193C9.59536 13.8813 10.4398 13.7982 11.2073 13.4803C11.9747 13.1624 12.6307 12.6241 13.0922 11.9334C13.5537 11.2427 13.8 10.4307 13.8 9.59999C13.8 8.48609 13.3575 7.4178 12.5699 6.63015C11.7822 5.8425 10.7139 5.4 9.60002 5.4ZM9.60002 12.6C9.00668 12.6 8.42666 12.424 7.93331 12.0944C7.43996 11.7648 7.05545 11.2962 6.82838 10.748C6.60132 10.1999 6.54191 9.59666 6.65767 9.01472C6.77342 8.43278 7.05915 7.89823 7.4787 7.47868C7.89826 7.05912 8.43281 6.7734 9.01475 6.65764C9.59669 6.54189 10.1999 6.6013 10.7481 6.82836C11.2962 7.05542 11.7648 7.43994 12.0944 7.93329C12.4241 8.42663 12.6 9.00665 12.6 9.59999C12.6 10.3956 12.2839 11.1587 11.7213 11.7213C11.1587 12.2839 10.3957 12.6 9.60002 12.6Z" fill="#283040"/>
</svg>
