<svg width="21" height="24" viewBox="0 0 21 24" fill="none" xmlns="http://www.w3.org/2000/svg">
<g clip-path="url(#clip0_7_225)">
<path d="M10.2001 24C7.65329 24 5.13113 23.5653 3.28002 22.8079C0.734371 21.7664 0.200114 20.4836 0.200114 19.5916C0.192482 16.9286 1.25923 14.3255 3.12737 12.4484L3.14088 12.4341C3.25536 12.3215 3.40566 12.2592 3.56476 12.2592C3.72386 12.2592 3.88414 12.325 3.99921 12.4442C4.23287 12.6862 4.22759 13.0747 3.98805 13.3107C2.3436 14.9631 1.40601 17.2506 1.41247 19.5904C1.41247 21.0956 5.02134 22.7741 10.1995 22.7741C15.3777 22.7741 18.9866 21.0968 18.9866 19.591C18.9936 17.2346 18.0437 14.9346 16.3805 13.2811C16.3728 13.2734 16.3681 13.2686 16.3629 13.2639C16.2495 13.1464 16.1879 12.9922 16.1897 12.8286C16.1914 12.6649 16.256 12.5118 16.3722 12.3974C16.4861 12.2847 16.637 12.2224 16.7961 12.2224C16.9552 12.2224 17.1149 12.2877 17.23 12.4069L17.2347 12.4116C19.1275 14.2923 20.2083 16.9084 20.2001 19.5904C20.2001 20.4836 19.6659 21.7658 17.1202 22.8079C15.2691 23.5653 12.7469 24 10.2001 24Z" fill="#283040"/>
<path d="M10.2007 12.6127C6.76208 12.6085 3.96163 9.77947 3.95752 6.30574C3.95752 2.82904 6.75797 0 10.2001 0C13.6423 0 16.4427 2.82904 16.4427 6.30633C16.4427 9.78362 13.6423 12.6127 10.2001 12.6127H10.2007ZM10.2001 1.22532C7.43019 1.22888 5.17398 3.50754 5.17105 6.30574C5.17105 9.10809 7.42725 11.3873 10.2007 11.3873C12.9741 11.3873 15.2303 9.10809 15.2303 6.30633C15.2303 3.50457 12.9735 1.22532 10.2001 1.22532Z" fill="#283040"/>
</g>
<defs>
<clipPath id="clip0_7_225">
<rect width="20" height="24" fill="white" transform="translate(0.200073)"/>
</clipPath>
</defs>
</svg>
