<svg width="23" height="24" viewBox="0 0 23 24" fill="none" xmlns="http://www.w3.org/2000/svg">
<path d="M21.5148 4.92192C21.4658 4.87847 21.41 4.84354 21.3495 4.81856L12.6499 1.22784C11.593 0.791576 10.8071 0.791576 9.75032 1.22784L1.05079 4.81861C0.398198 5.0879 0.0673545 5.73501 0.0673545 6.74184L0.0672607 20.6662C0.0672607 22.0078 1.15879 23.0993 2.50049 23.0993H19.8997C21.2414 23.0993 22.3329 22.0078 22.3329 20.6662V6.74179C22.3329 6.02615 22.05 5.39686 21.5148 4.92192ZM17.766 12.3784H4.6342V11.2559C4.6342 10.7659 5.03287 10.3672 5.52285 10.3672H16.8773C17.3673 10.3672 17.766 10.7659 17.766 11.2559V12.3784ZM4.6342 13.5502H17.766V21.9275H4.6342V13.5502ZM21.161 20.6662C21.161 21.3616 20.5952 21.9275 19.8997 21.9275H18.9379V11.2558C18.9379 10.1197 18.0135 9.19528 16.8773 9.19528H5.52285C4.3867 9.19528 3.46232 10.1197 3.46232 11.2558V21.9275H2.50049C1.80496 21.9275 1.23914 21.3616 1.23914 20.6662L1.23918 6.74179C1.23918 6.25523 1.32618 5.97262 1.49789 5.90179L10.1974 2.31103C10.5817 2.1524 10.8908 2.07314 11.2002 2.07314C11.5094 2.07314 11.8187 2.15245 12.2028 2.31103L20.8034 5.86087C21.0439 6.10195 21.1611 6.39103 21.1611 6.74175V20.6662H21.161Z" fill="#283040"/>
</svg>
